<svg id="visual" viewBox="0 0 900 600" width="900" height="600" xmlns="http://www.w3.org/2000/svg" xmlns:xlink="http://www.w3.org/1999/xlink" version="1.1"><rect x="0" y="0" width="900" height="600" fill="#001122"></rect><g fill="none" stroke="#4FACF7" stroke-width="4"><path d="M31.8 18.4L31.8 82.1L-31.8 82.1L-31.8 18.4L-87 -13.5L-55.2 -68.6L0 -36.8L55.2 -68.6L87 -13.5Z" transform="translate(835 60)"></path><path d="M14 8.1L14 36.2L-14 36.2L-14 8.1L-38.3 -5.9L-24.3 -30.2L0 -16.2L24.3 -30.2L38.3 -5.9Z" transform="translate(5 58)"></path><path d="M19.4 11.2L19.4 50.1L-19.4 50.1L-19.4 11.2L-53.1 -8.2L-33.7 -41.9L0 -22.4L33.7 -41.9L53.1 -8.2Z" transform="translate(752 501)"></path><path d="M23.2 13.4L23.2 59.8L-23.2 59.8L-23.2 13.4L-63.4 -9.8L-40.2 -50L0 -26.8L40.2 -50L63.4 -9.8Z" transform="translate(156 295)"></path></g></svg>